<?xml version="1.0" encoding="UTF-8"?>
<svg version="1.1" xmlns="http://www.w3.org/2000/svg" width="96" height="96">
<path d="M0 0 C-0.52605781 6.68198209 -1.8796114 12.42234423 -4.09765625 18.73046875 C-4.40776138 19.63615601 -4.71786652 20.54184326 -5.03736877 21.47497559 C-6.03592803 24.38264913 -7.0482031 27.28528237 -8.0625 30.1875 C-8.7528079 32.17736313 -9.44274873 34.16735364 -10.13232422 36.1574707 C-11.47836683 40.0366176 -12.83076035 43.9134744 -14.18701172 47.7890625 C-15.69201858 52.09837254 -17.15476012 56.419531 -18.59765625 60.75 C-19.27263652 62.72943998 -19.94831779 64.70864119 -20.625 66.6875 C-20.90609619 67.55721436 -21.18719238 68.42692871 -21.47680664 69.32299805 C-22.6042994 72.53467489 -23.37493198 74.5950414 -26.28515625 76.48046875 C-30.83056935 75.67602873 -32.92365722 72.02626257 -35.8125 68.625 C-40.35423298 63.61727254 -43.8407848 60.18212795 -50.76635742 59.58544922 C-53.88308347 59.55250508 -56.898002 59.67797918 -60 60 C-59.89816406 59.01902344 -59.79632813 58.03804687 -59.69140625 57.02734375 C-59.4197599 51.57331144 -59.25718448 46.46525512 -62.51953125 41.85058594 C-65.09249512 39.01792851 -67.81378036 36.45592165 -70.71508789 33.96264648 C-71.38789795 33.38329346 -72.06070801 32.80394043 -72.75390625 32.20703125 C-73.37595947 31.7066333 -73.9980127 31.20623535 -74.63891602 30.69067383 C-76.4712557 28.41462857 -76.10118535 26.84798192 -76 24 C-75.24102417 23.74357224 -74.48204834 23.48714447 -73.70007324 23.22294617 C-66.52063772 20.79703764 -59.34163602 18.36985141 -52.16310883 15.94125652 C-48.47323211 14.69296968 -44.78319412 13.44516419 -41.09277344 12.19848633 C-37.52622395 10.99363371 -33.96011661 9.78748068 -30.39430237 8.58045387 C-29.03902099 8.1219402 -27.68358534 7.66388226 -26.32798767 7.20630455 C-17.77880872 4.33520856 -17.77880872 4.33520856 -9.32226562 1.20629883 C-5.96770619 -0.01172573 -3.53627138 -0.26522035 0 0 Z " fill="#35C2F1" transform="translate(86,10)"/>
<path d="M0 0 C-6.85097574 8.60763618 -15.42874378 14.44034804 -24.5625 20.4375 C-26.39072479 21.6469846 -28.21884526 22.85662689 -30.046875 24.06640625 C-31.00400391 24.69820801 -31.96113281 25.33000977 -32.94726562 25.98095703 C-38.41316867 29.59604166 -43.86157603 33.23738989 -49.3125 36.875 C-51.37102169 38.24750392 -53.42960905 39.61990935 -55.48828125 40.9921875 C-56.36009033 41.57339355 -57.23189941 42.15459961 -58.13012695 42.75341797 C-58.74718506 43.16479004 -59.36424316 43.57616211 -60 44 C-64.05516276 40.55883599 -68.0909914 37.11305266 -71.9375 33.4375 C-72.70964844 32.71433594 -73.48179688 31.99117187 -74.27734375 31.24609375 C-76.34821041 28.54598416 -76.15083024 27.30561058 -76 24 C-75.24102417 23.74357224 -74.48204834 23.48714447 -73.70007324 23.22294617 C-66.52063772 20.79703764 -59.34163602 18.36985141 -52.16310883 15.94125652 C-48.47323211 14.69296968 -44.78319412 13.44516419 -41.09277344 12.19848633 C-37.52622395 10.99363371 -33.96011661 9.78748068 -30.39430237 8.58045387 C-29.03902099 8.1219402 -27.68358534 7.66388226 -26.32798767 7.20630455 C-17.77880872 4.33520856 -17.77880872 4.33520856 -9.32226562 1.20629883 C-5.96770619 -0.01172573 -3.53627138 -0.26522035 0 0 Z " fill="#4FE5FE" transform="translate(86,10)"/>
<path d="M0 0 C0 3.76864321 -1.09146634 4.94640339 -3.2265625 8.0234375 C-3.92136719 9.03543213 -4.61617187 10.04742676 -5.33203125 11.09008789 C-6.48318567 12.74307136 -7.63794634 14.39348594 -8.79345703 16.04342651 C-9.98220948 17.74192118 -11.16799384 19.4424204 -12.3515625 21.14453125 C-12.94726044 22.00028999 -12.94726044 22.00028999 -13.55499268 22.87333679 C-16.1142166 26.59263837 -18.42955364 30.38803066 -20.6484375 34.32421875 C-28.54258243 48.03659874 -28.54258243 48.03659874 -33.25683594 49.88476562 C-38.35083853 50.76253986 -42.99950167 50.14418182 -48 49 C-49.55090394 43.19847045 -50.47949428 37.66456435 -48 32 C-42.37425481 25.9486962 -34.59088016 22.11964948 -27.4921875 18.05419922 C-21.6393944 14.66445655 -16.09446985 10.79437387 -10.5 7 C-8.46997304 5.64400056 -6.43883603 4.28966048 -4.40625 2.9375 C-3.55353516 2.36902344 -2.70082031 1.80054687 -1.82226562 1.21484375 C-1.22091797 0.81394531 -0.61957031 0.41304687 0 0 Z " fill="#199BE2" transform="translate(74,21)"/>
</svg>
