<?xml version="1.0" encoding="UTF-8"?>
<svg version="1.1" xmlns="http://www.w3.org/2000/svg" width="100" height="100">
<path d="M0 0 C0.94463104 -0.01268417 1.88926208 -0.02536835 2.86251831 -0.03843689 C4.39067673 -0.03403343 4.39067673 -0.03403343 5.94970703 -0.02954102 C7.52366745 -0.03740379 7.52366745 -0.03740379 9.12942505 -0.04542542 C11.35027176 -0.05185192 13.57115248 -0.05050054 15.79199219 -0.04199219 C19.18763067 -0.03349702 22.58157922 -0.06221241 25.97705078 -0.09399414 C28.13460236 -0.0956066 30.29215692 -0.09502777 32.44970703 -0.09204102 C33.46443085 -0.10327499 34.47915466 -0.11450897 35.52462769 -0.12608337 C42.59464122 -0.05633789 42.59464122 -0.05633789 46.40844727 2.32324219 C47.04339111 3.00990967 47.67833496 3.69657715 48.33251953 4.40405273 C48.88294922 4.99444336 49.43337891 5.58483398 50.00048828 6.19311523 C50.50193359 6.79897461 51.00337891 7.40483398 51.52001953 8.02905273 C55.21202391 12.3649166 59.21956791 16.32706369 63.29345703 20.30249023 C66.53256132 23.64087742 66.46457167 25.6252246 66.49365234 30.18310547 C66.50325989 31.3945372 66.51286743 32.60596893 66.52276611 33.85411072 C66.52701599 35.16867752 66.53126587 36.48324432 66.53564453 37.83764648 C66.54139577 39.19523623 66.5471535 40.55282595 66.55291748 41.91041565 C66.56342567 44.75766377 66.56926972 47.60488365 66.57275391 50.45214844 C66.57824263 54.10194396 66.60227893 57.75136716 66.63072586 61.4010458 C66.64934067 64.20544021 66.65455717 67.00974465 66.65608978 69.81419563 C66.66059248 71.81452368 66.67924322 73.8148036 66.69805908 75.81504822 C66.69505798 77.02963211 66.69205688 78.244216 66.68896484 79.49560547 C66.69443329 81.10205177 66.69443329 81.10205177 66.70001221 82.74095154 C66.33251953 85.40405273 66.33251953 85.40405273 65.20820618 87.25105286 C62.43541823 88.95550822 60.20430225 88.77068005 56.96508789 88.76049805 C54.99305641 88.76499969 54.99305641 88.76499969 52.98118591 88.76959229 C51.54490773 88.75758709 50.10863347 88.74510413 48.67236328 88.73217773 C47.20170789 88.72911993 45.73104961 88.72724397 44.26039124 88.72650146 C41.17942204 88.72189945 38.09871437 88.7074768 35.01782227 88.68530273 C31.06429017 88.65699558 27.11096386 88.64608862 23.15734005 88.64162064 C20.12136264 88.63746848 17.08542701 88.62765311 14.0494709 88.61574554 C12.59138893 88.61004015 11.13330294 88.60528233 9.67521477 88.60147858 C7.64030432 88.59462081 5.60542405 88.5800918 3.57055664 88.56518555 C2.41156357 88.55835754 1.2525705 88.55152954 0.05845642 88.54449463 C-2.66748047 88.40405273 -2.66748047 88.40405273 -4.66748047 87.40405273 C-4.66748047 86.74405273 -4.66748047 86.08405273 -4.66748047 85.40405273 C-5.32748047 85.40405273 -5.98748047 85.40405273 -6.66748047 85.40405273 C-8.18547896 82.36805576 -7.82355495 79.2119747 -7.82861328 75.88085938 C-7.83357819 75.10510056 -7.83854309 74.32934174 -7.84365845 73.53007507 C-7.85829046 70.95811077 -7.86508324 68.38620811 -7.87060547 65.81420898 C-7.8763554 64.03063454 -7.88211315 62.24706012 -7.88787842 60.46348572 C-7.8983909 56.72174796 -7.90423217 52.98003171 -7.90771484 49.23828125 C-7.91320475 44.43837584 -7.93724223 39.63875337 -7.9656868 34.83893681 C-7.98428751 31.15440534 -7.98951737 27.46994243 -7.99105072 23.78536797 C-7.99408283 22.01549162 -8.00213007 20.24561663 -8.0152359 18.47578621 C-8.03224556 16.0025169 -8.03042904 13.5299443 -8.02392578 11.05664062 C-8.03774796 9.95544388 -8.03774796 9.95544388 -8.05184937 8.83200073 C-8.02829677 5.98002842 -7.97965855 3.89951341 -6.43692017 1.45101929 C-4.16048401 0.10406606 -2.64317031 0.01718591 0 0 Z " fill="#D8EDFE" transform="translate(21.66748046875,6.595947265625)"/>
<path d="M0 0 C0.94463104 -0.01268417 1.88926208 -0.02536835 2.86251831 -0.03843689 C4.39067673 -0.03403343 4.39067673 -0.03403343 5.94970703 -0.02954102 C7.52366745 -0.03740379 7.52366745 -0.03740379 9.12942505 -0.04542542 C11.35027176 -0.05185192 13.57115248 -0.05050054 15.79199219 -0.04199219 C19.18763067 -0.03349702 22.58157922 -0.06221241 25.97705078 -0.09399414 C28.13460236 -0.0956066 30.29215692 -0.09502777 32.44970703 -0.09204102 C33.46443085 -0.10327499 34.47915466 -0.11450897 35.52462769 -0.12608337 C42.59464122 -0.05633789 42.59464122 -0.05633789 46.40844727 2.32324219 C47.04339111 3.00990967 47.67833496 3.69657715 48.33251953 4.40405273 C48.88294922 4.99444336 49.43337891 5.58483398 50.00048828 6.19311523 C50.50193359 6.79897461 51.00337891 7.40483398 51.52001953 8.02905273 C55.21202391 12.3649166 59.21956791 16.32706369 63.29345703 20.30249023 C66.53256132 23.64087742 66.46457167 25.6252246 66.49365234 30.18310547 C66.50325989 31.3945372 66.51286743 32.60596893 66.52276611 33.85411072 C66.52701599 35.16867752 66.53126587 36.48324432 66.53564453 37.83764648 C66.54139577 39.19523623 66.5471535 40.55282595 66.55291748 41.91041565 C66.56342567 44.75766377 66.56926972 47.60488365 66.57275391 50.45214844 C66.57824263 54.10194396 66.60227893 57.75136716 66.63072586 61.4010458 C66.64934067 64.20544021 66.65455717 67.00974465 66.65608978 69.81419563 C66.66059248 71.81452368 66.67924322 73.8148036 66.69805908 75.81504822 C66.69505798 77.02963211 66.69205688 78.244216 66.68896484 79.49560547 C66.69443329 81.10205177 66.69443329 81.10205177 66.70001221 82.74095154 C66.33251953 85.40405273 66.33251953 85.40405273 65.20820618 87.25105286 C62.43541823 88.95550822 60.20430225 88.77068005 56.96508789 88.76049805 C54.99305641 88.76499969 54.99305641 88.76499969 52.98118591 88.76959229 C51.54490773 88.75758709 50.10863347 88.74510413 48.67236328 88.73217773 C47.20170789 88.72911993 45.73104961 88.72724397 44.26039124 88.72650146 C41.17942204 88.72189945 38.09871437 88.7074768 35.01782227 88.68530273 C31.06429017 88.65699558 27.11096386 88.64608862 23.15734005 88.64162064 C20.12136264 88.63746848 17.08542701 88.62765311 14.0494709 88.61574554 C12.59138893 88.61004015 11.13330294 88.60528233 9.67521477 88.60147858 C7.64030432 88.59462081 5.60542405 88.5800918 3.57055664 88.56518555 C2.41156357 88.55835754 1.2525705 88.55152954 0.05845642 88.54449463 C-2.66748047 88.40405273 -2.66748047 88.40405273 -4.66748047 87.40405273 C-4.66748047 86.74405273 -4.66748047 86.08405273 -4.66748047 85.40405273 C-5.32748047 85.40405273 -5.98748047 85.40405273 -6.66748047 85.40405273 C-8.18547896 82.36805576 -7.82355495 79.2119747 -7.82861328 75.88085938 C-7.83357819 75.10510056 -7.83854309 74.32934174 -7.84365845 73.53007507 C-7.85829046 70.95811077 -7.86508324 68.38620811 -7.87060547 65.81420898 C-7.8763554 64.03063454 -7.88211315 62.24706012 -7.88787842 60.46348572 C-7.8983909 56.72174796 -7.90423217 52.98003171 -7.90771484 49.23828125 C-7.91320475 44.43837584 -7.93724223 39.63875337 -7.9656868 34.83893681 C-7.98428751 31.15440534 -7.98951737 27.46994243 -7.99105072 23.78536797 C-7.99408283 22.01549162 -8.00213007 20.24561663 -8.0152359 18.47578621 C-8.03224556 16.0025169 -8.03042904 13.5299443 -8.02392578 11.05664062 C-8.03774796 9.95544388 -8.03774796 9.95544388 -8.05184937 8.83200073 C-8.02829677 5.98002842 -7.97965855 3.89951341 -6.43692017 1.45101929 C-4.16048401 0.10406606 -2.64317031 0.01718591 0 0 Z M0.33251953 8.40405273 C0.33251953 31.50405273 0.33251953 54.60405273 0.33251953 78.40405273 C18.81251953 78.40405273 37.29251953 78.40405273 56.33251953 78.40405273 C56.33251953 61.24405273 56.33251953 44.08405273 56.33251953 26.40405273 C51.05251953 26.07405273 45.77251953 25.74405273 40.33251953 25.40405273 C40.00251953 19.79405273 39.67251953 14.18405273 39.33251953 8.40405273 C26.46251953 8.40405273 13.59251953 8.40405273 0.33251953 8.40405273 Z " fill="#F0F0F0" transform="translate(21.66748046875,6.595947265625)"/>
<path d="M0 0 C7.033125 -0.2475 14.06625 -0.495 21.3125 -0.75 C24.607948 -0.91387207 24.607948 -0.91387207 27.9699707 -1.08105469 C42.75533837 -1.51047738 42.75533837 -1.51047738 47.62646484 2.47851562 C50.00846771 4.87878233 51.93429615 7.50927322 53.75935364 10.36082458 C55.20867249 12.27570372 56.88325601 13.55909717 58.73974609 15.07739258 C61.97171927 18.24301101 62.53409736 20.53998689 62.79467773 25.02709961 C62.79294008 27.40246897 62.75475163 29.77803981 62.68359375 32.15234375 C62.67654419 33.26581177 62.66949463 34.37927979 62.66223145 35.52648926 C62.62575828 39.66401024 62.52802768 43.8008087 62.4375 47.9375 C62.293125 57.198125 62.14875 66.45875 62 76 C41.54 76 21.08 76 0 76 C0 50.92 0 25.84 0 0 Z M3 3 C3 26.1 3 49.2 3 73 C21.48 73 39.96 73 59 73 C59 55.84 59 38.68 59 21 C53.72 20.67 48.44 20.34 43 20 C42.67 14.39 42.34 8.78 42 3 C29.13 3 16.26 3 3 3 Z " fill="#413A6E" transform="translate(19,12)"/>
<path d="M0 0 C2.34119365 1.7954138 2.95511513 2.68701769 3.38095093 5.65637207 C3.3845311 7.25829407 3.3845311 7.25829407 3.38818359 8.89257812 C3.39764008 10.10393433 3.40709656 11.31529053 3.4168396 12.56335449 C3.41076691 13.87276001 3.40469421 15.18216553 3.3984375 16.53125 C3.40045851 17.88741207 3.40337018 19.24357309 3.40713501 20.59973145 C3.41155716 23.44110467 3.40513123 26.28219485 3.39111328 29.12353516 C3.37402097 32.76552103 3.3838628 36.4068437 3.40183067 40.04880524 C3.41267175 42.84894812 3.40922079 45.6489338 3.4014473 48.44908142 C3.39847298 50.4449405 3.4075834 52.44080568 3.4168396 54.43664551 C3.40265488 56.25367981 3.40265488 56.25367981 3.38818359 58.10742188 C3.38579681 59.17536987 3.38341003 60.24331787 3.38095093 61.34362793 C3 64 3 64 1.873703 65.84501648 C-0.89573129 67.55214454 -3.12956136 67.37407167 -6.36743164 67.37231445 C-8.33946312 67.38165764 -8.33946312 67.38165764 -10.35133362 67.39118958 C-11.78761168 67.38250242 -13.22388605 67.37318453 -14.66015625 67.36328125 C-16.13081359 67.36276265 -17.60147164 67.36328034 -19.0721283 67.36479187 C-22.15308999 67.36470217 -25.23378988 67.35427642 -28.31469727 67.33618164 C-32.26830287 67.3134744 -36.22152659 67.31295412 -40.17517948 67.31969929 C-43.21117054 67.32303666 -46.24707415 67.31641394 -49.28304863 67.30657005 C-50.74112936 67.30271523 -52.1992198 67.301571 -53.65730476 67.3031559 C-55.69221294 67.30352575 -57.72710842 67.28944717 -59.76196289 67.2746582 C-60.92095596 67.27005081 -62.07994904 67.26544342 -63.27406311 67.26069641 C-66 67 -66 67 -68 65 C-67.19233688 64.99413376 -66.38467377 64.98826752 -65.55253601 64.98222351 C-57.94501422 64.92434532 -50.33782177 64.85229728 -42.73059368 64.76428509 C-38.81952152 64.71953685 -34.90855459 64.68029089 -30.99731445 64.65356445 C-27.22347912 64.62757539 -23.45004781 64.5872051 -19.67646217 64.53681374 C-18.23600091 64.52011506 -16.79546972 64.50861947 -15.35492516 64.50238609 C-13.33896226 64.49277852 -11.32312559 64.46303898 -9.30737305 64.43237305 C-8.15931686 64.42126999 -7.01126068 64.41016693 -5.82841492 64.39872742 C-3.04192203 64.19880154 -3.04192203 64.19880154 -1.1270752 62.84423828 C0.4939218 60.19179351 0.35973664 58.15742362 0.34057617 55.05981445 C0.34034958 53.83877518 0.34012299 52.6177359 0.33988953 51.35969543 C0.32440567 50.04087875 0.30892181 48.72206207 0.29296875 47.36328125 C0.28737243 45.99993862 0.2831025 44.63658996 0.28010559 43.27323914 C0.26865949 39.68756408 0.23919486 36.10225446 0.20599365 32.51672363 C0.17528739 28.8569025 0.1615991 25.19702223 0.14648438 21.53710938 C0.11432449 14.35790644 0.06313153 7.17900446 0 0 Z " fill="#010101" transform="translate(85,28)"/>
<path d="M0 0 C5.58507504 2.69319824 10.9400039 5.40473961 16 9 C15.01 9.99 14.02 10.98 13 12 C13.350625 12.5775 13.70125 13.155 14.0625 13.75 C15 16 15 16 14.8125 18.1875 C14.544375 18.785625 14.27625 19.38375 14 20 C13.01 20.33 12.02 20.66 11 21 C9.68 19.35 8.36 17.7 7 16 C6.34 16.99 5.68 17.98 5 19 C4.34 19 3.68 19 3 19 C2.49356447 16.77228658 1.9951038 14.54275924 1.5 12.3125 C1.2215625 11.07113281 0.943125 9.82976562 0.65625 8.55078125 C0.10645874 5.57601782 -0.13795705 3.00631398 0 0 Z " fill="#2F8AC0" transform="translate(57,61)"/>
<path d="M0 0 C11.88 0 23.76 0 36 0 C36 0.99 36 1.98 36 3 C24.12 3 12.24 3 0 3 C0 2.01 0 1.02 0 0 Z " fill="#72BFFF" transform="translate(32,54)"/>
<path d="M0 0 C8.91 0 17.82 0 27 0 C27 0.99 27 1.98 27 3 C18.09 3 9.18 3 0 3 C0 2.01 0 1.02 0 0 Z " fill="#71BFFE" transform="translate(32,72)"/>
<path d="M0 0 C6.6 0 13.2 0 20 0 C20 0.99 20 1.98 20 3 C13.4 3 6.8 3 0 3 C0 2.01 0 1.02 0 0 Z " fill="#73C0FF" transform="translate(32,63)"/>
<path d="M0 0 C6.6 0 13.2 0 20 0 C20 0.99 20 1.98 20 3 C13.4 3 6.8 3 0 3 C0 2.01 0 1.02 0 0 Z " fill="#73C0FF" transform="translate(48,45)"/>
<path d="M0 0 C3.63 0 7.26 0 11 0 C11 0.99 11 1.98 11 3 C7.37 3 3.74 3 0 3 C0 2.01 0 1.02 0 0 Z " fill="#76C2FF" transform="translate(32,45)"/>
</svg>
